<svg width="150" height="64" viewBox="0 0 150 64" fill="none" xmlns="http://www.w3.org/2000/svg">
<path d="M141.737 6.35596H17.7966C16.7435 6.35596 15.8899 7.20965 15.8899 8.26274V18.4322C15.8899 19.4853 15.0362 20.339 13.9831 20.339H8.26274C7.20965 20.339 6.35596 21.1927 6.35596 22.2458V40.678C6.35596 41.7311 7.20965 42.5848 8.26274 42.5848H13.9831C15.0362 42.5848 15.8899 43.4385 15.8899 44.4916V55.2966C15.8899 56.3497 16.7435 57.2034 17.7966 57.2034H141.737C142.79 57.2034 143.644 56.3497 143.644 55.2966V8.26274C143.644 7.20965 142.79 6.35596 141.737 6.35596Z" fill="#6FD786"/>
<path fill-rule="evenodd" clip-rule="evenodd" d="M17.7966 0H141.737C146.301 0 150 3.69935 150 8.26271V55.2966C150 59.86 146.301 63.5593 141.737 63.5593H17.7966C13.2332 63.5593 9.5339 59.86 9.5339 55.2966V48.9407H8.26271C3.69934 48.9407 0 45.2413 0 40.678V22.2458C0 17.6824 3.69934 13.9831 8.26271 13.9831H9.5339V8.26271C9.5339 3.69934 13.2332 0 17.7966 0ZM17.7966 6.35593H141.737C142.79 6.35593 143.644 7.20963 143.644 8.26271V55.2966C143.644 56.3497 142.79 57.2034 141.737 57.2034H17.7966C16.7435 57.2034 15.8898 56.3497 15.8898 55.2966V44.4915C15.8898 43.4384 15.0361 42.5847 13.9831 42.5847H8.26271C7.20963 42.5847 6.35593 41.7311 6.35593 40.678V22.2458C6.35593 21.1927 7.20963 20.339 8.26271 20.339H13.9831C15.0361 20.339 15.8898 19.4853 15.8898 18.4322V8.26271C15.8898 7.20963 16.7435 6.35593 17.7966 6.35593Z" fill="white"/>
<path fill-rule="evenodd" clip-rule="evenodd" d="M77.2309 16.4137C77.5792 16.5233 77.8836 16.7411 78.0996 17.0355C78.3157 17.33 78.4322 17.6857 78.4321 18.0509V26.6314H85.2965C85.6104 26.6312 85.9184 26.7172 86.1868 26.8799C86.4553 27.0426 86.6739 27.2758 86.819 27.5542C86.9641 27.8325 87.0301 28.1454 87.0098 28.4586C86.9895 28.7719 86.8836 29.0735 86.7037 29.3308L74.691 46.4918C74.482 46.7913 74.1828 47.0163 73.837 47.1341C73.4912 47.2518 73.1169 47.2562 72.7685 47.1465C72.4201 47.0368 72.1157 46.8188 71.8998 46.5242C71.6838 46.2296 71.5675 45.8738 71.5677 45.5085V36.928H64.7033C64.3894 36.9281 64.0815 36.8421 63.813 36.6794C63.5446 36.5167 63.3259 36.2835 63.1808 36.0052C63.0357 35.7268 62.9697 35.414 62.9901 35.1007C63.0104 34.7875 63.1162 34.4858 63.2961 34.2285L75.3088 17.0675C75.5182 16.7686 75.8175 16.5441 76.1631 16.4269C76.5087 16.3096 76.8828 16.3056 77.2309 16.4154V16.4137Z" fill="#EDE63E"/>
</svg>
